<?xml version="1.0" standalone="no"?>
<!DOCTYPE svg PUBLIC "-//W3C//DTD SVG 20010904//EN"
 "http://www.w3.org/TR/2001/REC-SVG-20010904/DTD/svg10.dtd">
<svg version="1.0" xmlns="http://www.w3.org/2000/svg"
 width="1101.000000pt" height="2001.000000pt" viewBox="0 0 1101.000000 1101.000000"
 preserveAspectRatio="xMidYMid meet">

<g transform="translate(0.000000,1101.000000) scale(0.100000,-0.100000)"
fill="#FFF" stroke="none">
<path d="M3000 8415 c0 -9 211 -228 469 -486 258 -258 467 -469 463 -469 -3 0
7 -10 22 -22 16 -13 48 -43 70 -67 23 -24 49 -51 58 -60 10 -9 659 -657 1443
-1440 987 -987 1425 -1431 1425 -1446 0 -15 -31 -44 -110 -103 -60 -45 -111
-82 -114 -82 -3 0 -24 -13 -48 -29 -108 -73 -341 -177 -488 -218 -183 -51
-442 -93 -492 -79 -22 6 -274 253 -1598 1569 -940 933 -1086 1077 -1098 1077
-6 0 -16 -9 -22 -21 -12 -21 -15 -2914 -4 -2944 11 -28 0 -28 922 -26 621 1
642 2 642 20 0 20 -11 32 -187 204 l-110 107 -456 0 c-250 0 -462 3 -471 6
-14 6 -16 97 -16 930 0 561 4 924 9 924 11 0 229 -212 692 -671 881 -875 1522
-1505 1537 -1511 30 -12 206 -8 344 7 285 31 571 115 797 232 46 24 88 43 93
43 12 0 165 100 254 167 40 29 76 53 81 53 5 0 18 10 29 23 11 12 60 58 109
102 48 44 93 86 99 93 13 15 20 22 59 55 15 14 27 28 27 34 0 5 16 24 35 43
19 19 35 39 35 44 0 7 18 31 85 109 8 9 15 24 15 32 0 8 9 20 20 27 11 7 20
18 20 25 0 7 8 20 19 30 10 10 21 30 25 45 3 16 11 28 16 28 6 0 10 7 10 15 0
8 5 15 11 15 6 0 9 6 6 14 -3 8 -3 16 1 18 8 3 59 105 92 183 12 28 25 59 30
70 5 11 22 61 38 110 97 293 122 461 122 804 0 239 -10 357 -46 521 -34 155
-96 362 -116 384 -4 6 -8 17 -8 25 0 20 -161 341 -172 341 -4 0 -8 6 -8 14 0
8 -6 21 -13 28 -7 7 -24 31 -37 53 -25 41 -27 43 -60 84 -11 13 -20 27 -20 30
0 3 -14 22 -31 41 -16 19 -51 60 -76 90 -58 68 -161 171 -231 230 -30 25 -70
60 -90 77 -21 18 -40 33 -43 33 -3 0 -17 9 -30 21 -20 17 -109 77 -204 136
-39 25 -279 143 -289 143 -6 0 -23 6 -37 14 -69 36 -312 105 -479 138 -115 22
-117 22 -1567 25 -1331 3 -1453 2 -1453 -12z m2754 -335 c185 -14 331 -43 511
-102 101 -33 108 -36 255 -108 111 -55 192 -99 200 -110 3 -3 23 -17 45 -30
22 -13 46 -30 53 -37 7 -7 17 -13 20 -13 4 0 18 -10 32 -23 14 -12 47 -40 74
-62 87 -71 200 -188 291 -303 5 -7 15 -18 21 -25 10 -11 112 -165 141 -212 13
-20 104 -205 128 -260 42 -93 91 -266 121 -425 21 -108 30 -522 15 -630 -29
-198 -30 -206 -65 -316 -9 -29 -16 -57 -16 -63 0 -16 -102 -275 -111 -281 -4
-3 -11 -18 -14 -33 -4 -15 -11 -27 -16 -27 -5 0 -9 -6 -9 -12 0 -29 -201 -328
-220 -328 -8 0 -3410 3395 -3410 3404 0 11 1804 7 1954 -4z"/>
</g>
</svg>
